<svg height="502pt" viewBox="0 -32 502 502" width="502pt" xmlns="http://www.w3.org/2000/svg"><path d="m488 433.757812h-474c-5.523438 0-10-4.480468-10-10v-409.757812c0-5.523438 4.476562-10 10-10h474c5.523438 0 10 4.476562 10 10v409.757812c0 5.523438-4.476562 10-10 10zm0 0" fill="#f85252"/><path d="m498 74.359375v349.398437c0 5.519532-4.480469 10-10 10h-474c-5.519531 0-10-4.480468-10-10v-409.761718c0-5.519532 4.480469-10 10-10h119.898438l51.023437 63.402344c3.539063 4.398437 8.898437 6.960937 14.558594 6.960937zm0 0" fill="#d8d6d7"/><path d="m498 74.359375v349.398437c0 5.523438-4.476562 10-10 10h-443.539062c-5.523438 0-10-4.476562-10-10v-409.761718c0-5.519532 4.476562-10 10-10h89.4375l51.023437 63.402344c3.539063 4.398437 8.898437 6.960937 14.558594 6.960937zm0 0" fill="#fff"/><path d="m419.476562 39.792969c0 7.617187-6.175781 13.792969-13.792968 13.792969-7.617188 0-13.792969-6.175782-13.792969-13.792969 0-7.617188 6.175781-13.792969 13.792969-13.792969 7.617187 0 13.792968 6.175781 13.792968 13.792969zm0 0" fill="#fff"/><path d="m469.960938 39.792969c0 7.617187-6.175782 13.792969-13.792969 13.792969-7.617188 0-13.792969-6.175782-13.792969-13.792969 0-7.617188 6.175781-13.792969 13.792969-13.792969 7.617187 0 13.792969 6.175781 13.792969 13.792969zm0 0" fill="#fff"/><path d="m109.976562 319.316406c0 14.542969-11.789062 26.332032-26.332031 26.332032s-26.332031-11.789063-26.332031-26.332032c0-14.542968 11.789062-26.332031 26.332031-26.332031s26.332031 11.789063 26.332031 26.332031zm0 0" fill="#f85252"/><path d="m434.6875 258.21875h-367.375c-5.523438 0-10-4.480469-10-10v-119.105469c0-5.519531 4.476562-10 10-10h367.375c5.523438 0 10 4.480469 10 10v119.105469c0 5.519531-4.476562 10-10 10zm0 0" fill="#d8d6d7"/><path d="m316.160156 319.316406c0 14.542969-11.789062 26.332032-26.332031 26.332032-14.539063 0-26.332031-11.789063-26.332031-26.332032 0-14.542968 11.792968-26.332031 26.332031-26.332031 14.542969 0 26.332031 11.789063 26.332031 26.332031zm0 0" fill="#f85252"/><path d="m203.6875 153.601562 19.847656 74.070313c1.992188 7.433594 11.285156 9.925781 16.730469 4.480469l54.21875-54.222656c5.445313-5.445313 2.953125-14.738282-4.480469-16.730469l-74.066406-19.84375c-7.4375-1.992188-14.242188 4.808593-12.25 12.246093zm0 0" fill="#40c4df"/><path d="m295.734375 216.890625-16.511719 16.507813c-3.90625 3.90625-10.234375 3.90625-14.140625 0l-13.03125-13.03125 30.652344-30.652344 13.03125 13.03125c3.902344 3.90625 3.902344 10.238281 0 14.144531zm0 0" fill="#1c868e"/><g fill="#491352"><path d="m488 0c-18.835938 0-454.773438 0-473.5625 0h-.4375c-7.71875 0-14 6.28125-14 14v409.757812c0 7.71875 6.28125 14 14 14h474c7.71875 0 14-6.28125 14-14v-409.757812c0-7.71875-6.28125-14-14-14zm6 423.316406c0 3.550782-2.886719 6.441406-6.441406 6.441406h-473.121094c-3.550781 0-6.4375-2.890624-6.4375-6.441406v-408.878906c0-3.550781 2.886719-6.4375 6.4375-6.4375h117.546875l49.824219 61.898438c4.324218 5.375 10.761718 8.457031 17.664062 8.457031h294.527344zm0-352.960937h-294.53125c-4.460938 0-8.628906-1.996094-11.429688-5.472657l-45.785156-56.882812h345.746094c3.308594 0 6 2.691406 6 6zm0 0"/><path d="m116.519531 42.113281c0-2.207031-1.792969-4-4-4h-69.085937c-2.207032 0-4 1.792969-4 4s1.792968 4 4 4h69.085937c2.207031 0 4-1.792969 4-4zm0 0"/><path d="m405.6875 22c-9.8125 0-17.792969 7.980469-17.792969 17.792969 0 9.808593 7.980469 17.792969 17.792969 17.792969 9.808594 0 17.789062-7.984376 17.789062-17.792969 0-9.8125-7.980468-17.792969-17.789062-17.792969zm0 27.585938c-5.402344 0-9.792969-4.390626-9.792969-9.792969 0-5.398438 4.390625-9.789063 9.792969-9.789063 5.398438 0 9.789062 4.390625 9.789062 9.789063 0 5.398437-4.390624 9.792969-9.789062 9.792969zm0 0"/><path d="m83.644531 349.648438c16.726563 0 30.332031-13.605469 30.332031-30.332032 0-16.726562-13.605468-30.335937-30.332031-30.335937-16.726562 0-30.335937 13.609375-30.335937 30.335937 0 16.726563 13.609375 30.332032 30.335937 30.332032zm0-52.664063c12.3125 0 22.332031 10.019531 22.332031 22.332031 0 12.316406-10.019531 22.332032-22.332031 22.332032-12.316406 0-22.335937-10.015626-22.335937-22.332032.003906-12.3125 10.019531-22.332031 22.335937-22.332031zm0 0"/><path d="m456.167969 22c-9.808594 0-17.792969 7.980469-17.792969 17.792969 0 9.808593 7.980469 17.792969 17.792969 17.792969s17.792969-7.984376 17.792969-17.792969c0-9.8125-7.984376-17.792969-17.792969-17.792969zm0 27.585938c-5.398438 0-9.792969-4.390626-9.792969-9.792969 0-5.398438 4.394531-9.789063 9.792969-9.789063 5.398437 0 9.792969 4.390625 9.792969 9.789063 0 5.398437-4.394532 9.792969-9.792969 9.792969zm0 0"/><path d="m53.3125 129.113281v119.105469c0 7.71875 6.28125 14 14 14h367.375c7.71875 0 14-6.28125 14-14v-119.105469c0-7.71875-6.28125-14-14-14h-367.375c-7.71875 0-14 6.28125-14 14zm387.375 0v119.105469c0 3.308594-2.691406 6-6 6h-367.375c-3.308594 0-6-2.691406-6-6v-119.105469c0-3.308593 2.691406-6 6-6h367.375c3.308594 0 6 2.691407 6 6zm0 0"/><path d="m134.203125 296.984375h104.300781c5.28125 0 5.289063-8 0-8h-104.300781c-2.207031 0-4 1.792969-4 4s1.792969 4 4 4zm0 0"/><path d="m134.203125 323.316406h104.300781c5.28125 0 5.289063-8 0-8h-104.300781c-2.207031 0-4 1.792969-4 4 0 2.207032 1.792969 4 4 4zm0 0"/><path d="m134.203125 341.648438c-5.28125 0-5.292969 8 0 8h104.300781c5.28125 0 5.289063-8 0-8zm0 0"/><path d="m320.160156 319.316406c0-16.726562-13.605468-30.335937-30.332031-30.335937-16.722656 0-30.332031 13.609375-30.332031 30.335937 0 16.726563 13.609375 30.332032 30.332031 30.332032 16.726563 0 30.332031-13.605469 30.332031-30.332032zm-52.664062 0c0-12.3125 10.019531-22.335937 22.332031-22.335937 12.316406 0 22.332031 10.019531 22.332031 22.335937 0 12.3125-10.015625 22.332032-22.332031 22.332032-12.3125 0-22.332031-10.019532-22.332031-22.332032zm0 0"/><path d="m444.6875 288.984375h-104.296875c-5.285156 0-5.292969 8 0 8h104.296875c5.285156 0 5.292969-8 0-8zm0 0"/><path d="m444.6875 315.316406h-104.296875c-5.285156 0-5.292969 8 0 8h104.296875c5.285156 0 5.292969-8 0-8zm0 0"/><path d="m444.6875 341.648438h-104.296875c-5.285156 0-5.292969 8 0 8h104.296875c5.285156 0 5.292969-8 0-8zm0 0"/><path d="m444.6875 372.878906h-387.375c-5.285156 0-5.292969 8 0 8h387.375c5.285156 0 5.292969-8 0-8zm0 0"/><path d="m444.6875 400.878906h-387.375c-5.285156 0-5.292969 8 0 8h387.375c5.285156 0 5.292969-8 0-8zm0 0"/><path d="m219.671875 228.707031c2.792969 10.421875 15.804687 13.890625 23.421875 6.273438l8.957031-8.957031 10.203125 10.207031c5.457032 5.457031 14.34375 5.457031 19.796875 0l16.511719-16.511719c5.457031-5.457031 5.457031-14.339844 0-19.796875l-10.203125-10.203125c8.300781-8.304688 15.144531-12.898438 12.582031-22.480469-1.3125-4.890625-5.011718-8.589843-9.902344-9.898437l-74.066406-19.847656c-10.421875-2.792969-19.9375 6.734374-17.148437 17.144531zm73.234375-23.132812c2.335938 2.339843 2.335938 6.148437 0 8.488281l-16.511719 16.507812c-2.335937 2.335938-6.140625 2.339844-8.484375 0l-10.203125-10.203124 24.992188-24.996094zm-78.003906-60.355469 74.066406 19.84375c4.460938 1.195312 5.960938 6.769531 2.691406 10.039062-17.023437 17.023438-37.445312 37.445313-54.21875 54.222657-3.265625 3.269531-8.84375 1.769531-10.042968-2.691407l-19.84375-74.066406c-1.195313-4.457031 2.875-8.542968 7.347656-7.347656zm0 0"/></g></svg>