<?xml version="1.0" encoding="utf-8"?>
<!-- Generator: Adobe Illustrator 23.0.1, SVG Export Plug-In . SVG Version: 6.00 Build 0)  -->
<svg version="1.1" id="Calque_1" xmlns="http://www.w3.org/2000/svg" xmlns:xlink="http://www.w3.org/1999/xlink" x="0px" y="0px"
	 viewBox="0 0 850.39 850.39" style="enable-background:new 0 0 850.39 850.39;" xml:space="preserve">
<style type="text/css">
	.st0{fill:#FFFFFF;}
	.st1{fill:none;stroke:url(#SVGID_1_);stroke-width:7;stroke-miterlimit:10;}
	.st2{fill:none;stroke:#000000;stroke-width:8;stroke-miterlimit:10;}
	.st3{fill:url(#SVGID_2_);}
</style>
<g>
	<path class="st0" d="M100.39,458.12V337.02h15.94v59.14c3.38-5.1,7.37-8.83,11.95-11.17c4.58-2.34,10.16-3.52,16.72-3.52
		c5.52,0,10.22,0.87,14.1,2.62c3.88,1.75,6.91,4.34,9.1,7.77c1.3,2.03,2.24,4.4,2.81,7.11c0.57,2.71,0.86,7.45,0.86,14.22v44.92
		h-17.11v-38.05c0-9.74-1.19-16.21-3.55-19.41c-2.37-3.2-6.58-4.8-12.62-4.8c-3.96,0-7.49,0.73-10.59,2.19
		c-3.1,1.46-5.53,3.52-7.3,6.17c-1.25,1.77-2.12,4.05-2.62,6.84c-0.5,2.79-0.74,7.23-0.74,13.32v33.75H100.39z"/>
	<path class="st0" d="M314.06,423.59h-59.22c0.42,6.93,2.47,12.33,6.17,16.21c3.7,3.88,8.62,5.82,14.77,5.82
		c5.47,0,10.03-1.15,13.67-3.44c3.65-2.29,6.82-5.99,9.53-11.09l14.3,7.97c-4.17,7.45-9.32,13-15.47,16.64
		c-6.15,3.65-13.36,5.47-21.64,5.47c-11.88,0-21.33-3.62-28.36-10.86c-7.03-7.24-10.55-16.9-10.55-28.98
		c0-11.61,3.63-21.16,10.9-28.63c7.27-7.47,16.6-11.21,28.01-11.21c11.93,0,21.22,3.41,27.89,10.23c6.67,6.82,10,16.38,10,28.67
		V423.59z M296.49,412.18c-0.68-5.31-2.71-9.36-6.09-12.15c-3.39-2.79-8.02-4.18-13.91-4.18c-5.57,0-10.05,1.35-13.44,4.06
		c-3.39,2.71-5.76,6.8-7.11,12.27H296.49z M265.16,372.81L280,351.56h17.58l-22.81,21.25H265.16z"/>
	<path class="st0" d="M380.78,458.12V337.02h16.95v121.09H380.78z"/>
	<path class="st0" d="M468.75,352.02c0-2.86,1.05-5.34,3.16-7.42c2.11-2.08,4.62-3.13,7.54-3.13c3.02,0,5.53,1,7.54,3.01
		c2,2.01,3.01,4.52,3.01,7.54c0,3.02-1.02,5.56-3.05,7.62c-2.03,2.06-4.53,3.09-7.5,3.09c-2.92,0-5.43-1.05-7.54-3.16
		S468.75,354.94,468.75,352.02z M471.02,458.12v-74.06h16.95v74.06H471.02z"/>
	<path class="st0" d="M696.8,444.68l14.06-7.66c1.04,3.7,2.97,6.51,5.78,8.44c2.81,1.93,6.43,2.89,10.86,2.89
		c3.8,0,6.78-0.87,8.95-2.62c2.16-1.74,3.24-4.13,3.24-7.15c0-4.01-3.86-7.45-11.56-10.31c-2.61-0.94-4.61-1.72-6.02-2.34
		c-7.92-3.28-13.45-6.61-16.6-10c-3.15-3.38-4.73-7.5-4.73-12.34c0-6.61,2.59-11.98,7.77-16.09c5.18-4.11,12.04-6.17,20.59-6.17
		c5.73,0,10.64,1.05,14.73,3.16c4.09,2.11,7.07,5.12,8.95,9.02l-12.03,8.28c-0.89-2.34-2.44-4.21-4.65-5.59
		c-2.21-1.38-4.78-2.07-7.7-2.07c-3.23,0-5.82,0.77-7.77,2.3c-1.95,1.54-2.93,3.58-2.93,6.13c0,3.85,4.38,7.37,13.13,10.55
		c2.76,0.99,4.89,1.8,6.41,2.42c6.82,2.71,11.71,5.77,14.65,9.18c2.94,3.41,4.41,7.67,4.41,12.77c0,7.4-2.68,13.19-8.05,17.38
		c-5.37,4.19-12.76,6.29-22.19,6.29c-7.24,0-13.26-1.35-18.05-4.06C703.26,454.39,699.51,450.25,696.8,444.68z"/>
</g>
<linearGradient id="SVGID_1_" gradientUnits="userSpaceOnUse" x1="559.5" y1="416.1968" x2="650.5" y2="416.1968">
	<stop  offset="0" style="stop-color:#2581C4"/>
	<stop  offset="1" style="stop-color:#2581C4;stop-opacity:0"/>
</linearGradient>
<circle class="st1" cx="605" cy="416.2" r="42"/>
<circle class="st2" cx="605" cy="416.2" r="30.54"/>
<linearGradient id="SVGID_2_" gradientUnits="userSpaceOnUse" x1="575.9162" y1="416.1968" x2="634.0838" y2="416.1968">
	<stop  offset="0" style="stop-color:#2581C4"/>
	<stop  offset="1" style="stop-color:#2581C4;stop-opacity:0"/>
</linearGradient>
<circle class="st3" cx="605" cy="416.2" r="29.08"/>
<circle cx="605" cy="416.2" r="16.64"/>
<circle class="st0" cx="613.97" cy="444.31" r="5.97"/>
<circle class="st0" cx="625.76" cy="391.9" r="9.78"/>
</svg>
