<svg height="40px" viewBox="0 0 391 391.68737" width="40px" xmlns="http://www.w3.org/2000/svg"><path d="m97.566406 319.332031c22.191406 58.21875 87.375 87.429688 145.597656 65.242188 29.585938-11.277344 53.070313-34.460938 64.722657-63.898438-33.566407 5.648438-67.554688 8.386719-101.59375 8.179688-36.460938.277343-72.867188-2.910157-108.726563-9.523438zm0 0" fill="#d9176c"/><path d="m315.410156 269.097656c-5.210937-62.089844-59.769531-108.199218-121.859375-102.988281-55.273437 4.636719-98.976562 48.769531-103.074219 104.089844-.226562 2.921875-.445312 5.847656-.445312 8.828125.039062 5.226562.441406 10.4375 1.203125 15.605468 38.089844 5.574219 76.5625 8.128907 115.058594 7.648438 36.191406.339844 72.359375-1.84375 108.246093-6.539062.871094-5.53125 1.328126-11.117188 1.371094-16.714844 0-3.351563-.214844-6.652344-.5-9.929688zm0 0" fill="#d9176c"/><path d="m93.351562 66.433594c9.558594 4.78125 32.824219-4.199219 47.625-14.558594-7.835937-18.898438-23.21875-33.660156-42.425781-40.703125-11.519531 12.738281-36.164062 30.433594-79.015625 19.308594-7.628906 8.320312-13.21875 18.300781-16.328125 29.152343 11.898438 4.199219 24.382813 6.496094 36.996094 6.800782 26.574219 0 39.863281-6.640625 53.148437 0zm0 0" fill="#fdbd40"/><path d="m385.667969 26.574219c-11-.011719-19.917969-8.929688-19.929688-19.929688 0-3.671875-2.972656-6.644531-6.644531-6.644531-3.667969 0-6.640625 2.972656-6.640625 6.644531-.011719 11-8.929687 19.917969-19.933594 19.929688-3.667969 0-6.640625 2.972656-6.640625 6.644531 0 3.667969 2.972656 6.640625 6.640625 6.640625 11.003907.011719 19.921875 8.929687 19.933594 19.933594 0 3.667969 2.972656 6.640625 6.640625 6.640625 3.671875 0 6.644531-2.972656 6.644531-6.640625.011719-11.003907 8.929688-19.921875 19.929688-19.933594 3.671875 0 6.644531-2.972656 6.644531-6.640625 0-3.671875-2.972656-6.644531-6.644531-6.644531zm-26.574219 13.492187c-1.9375-2.601562-4.242188-4.910156-6.847656-6.847656 2.605468-1.9375 4.910156-4.246094 6.847656-6.851562 1.9375 2.605468 4.246094 4.910156 6.851562 6.851562-2.605468 1.9375-4.914062 4.246094-6.851562 6.847656zm0 0" fill="#f49e21"/><path d="m212.9375 106.296875c-11.003906-.011719-19.917969-8.929687-19.933594-19.929687 0-3.671876-2.972656-6.644532-6.640625-6.644532s-6.644531 2.972656-6.644531 6.644532c-.011719 11-8.925781 19.917968-19.929688 19.929687-3.667968 0-6.644531 2.972656-6.644531 6.644531 0 3.667969 2.976563 6.640625 6.644531 6.640625 11.003907.011719 19.917969 8.929688 19.929688 19.933594 0 3.667969 2.976562 6.640625 6.644531 6.640625s6.640625-2.972656 6.640625-6.640625c.015625-11.003906 8.929688-19.921875 19.933594-19.933594 3.667969 0 6.640625-2.972656 6.640625-6.640625.003906-3.671875-2.972656-6.644531-6.640625-6.644531zm-26.574219 13.492187c-1.9375-2.601562-4.246093-4.910156-6.851562-6.847656 2.605469-1.9375 4.914062-4.246094 6.851562-6.851562 1.9375 2.605468 4.246094 4.910156 6.847657 6.851562-2.601563 1.9375-4.910157 4.246094-6.847657 6.847656zm0 0" fill="#f49e21"/><path d="m310.492188 244.507812c2.550781 7.988282 4.203124 16.234376 4.917968 24.589844 23.027344 3.519532 37.042969 8.164063 37.042969 13.253906 0 5.152344-14.359375 9.851563-37.914063 13.390626-35.886718 4.695312-72.054687 6.878906-108.246093 6.539062-38.492188.480469-76.964844-2.074219-115.058594-7.648438-19.460937-3.386718-31.097656-7.648437-31.097656-12.28125 0-4.574218 11.332031-8.789062 30.339843-12.152343.609376-8.242188 2.125-16.390625 4.515626-24.304688-41.453126 8.519531-68.074219 21.679688-68.074219 36.457031 0 15.082032 27.71875 28.484376 70.648437 36.980469 35.859375 6.613281 72.265625 9.804688 108.726563 9.523438 34.035156.207031 68.027343-2.53125 101.589843-8.179688 46.972657-8.386719 77.785157-22.417969 77.785157-38.324219 0-15.605468-29.679688-29.40625-75.175781-37.84375zm0 0" fill="#32b1cc"/><path d="m319.234375 86.367188c0 14.675781-11.898437 26.574218-26.574219 26.574218-14.675781 0-26.574218-11.898437-26.574218-26.574218 0-14.679688 11.898437-26.574219 26.574218-26.574219 14.675782 0 26.574219 11.894531 26.574219 26.574219zm0 0" fill="#2d75bb"/><path d="m372.382812 179.375c0 7.339844-5.949218 13.289062-13.289062 13.289062-7.335938 0-13.285156-5.949218-13.285156-13.289062 0-7.335938 5.949218-13.285156 13.285156-13.285156 7.339844 0 13.289062 5.949218 13.289062 13.285156zm0 0" fill="#2d75bb"/><path d="m98.550781 11.171875c-27.8125-10.3125-59.097656-2.667969-79.015625 19.308594 42.851563 11.125 67.496094-6.566407 79.015625-19.308594zm0 0" fill="#f49e21"/><path d="m86.710938 132.871094c-18.484376 4.621094-49.78125-.394532-67.152344-3.878906 27.101562 29.757812 73.199218 31.917968 102.960937 4.816406 1.125-1.027344 2.21875-2.085938 3.28125-3.179688-13.066406-1.476562-26.285156-.71875-39.089843 2.242188zm0 0" fill="#f49e21"/><path d="m1.808594 94.3125c2.65625 12.960938 8.792968 24.945312 17.75 34.675781 17.371094 3.488281 48.667968 8.503907 67.148437 3.882813 12.808594-2.960938 26.027344-3.71875 39.089844-2.246094 13.289063-13.613281 20.71875-31.882812 20.703125-50.902344 0-.964844-.105469-1.898437-.140625-2.851562-42.597656 21.800781-113.894531 19.621094-144.550781 17.441406zm0 0" fill="#fdbd40"/><path d="m93.351562 66.433594c-13.285156-6.640625-26.574218 0-53.148437 0-12.613281-.304688-25.097656-2.601563-36.996094-6.800782-3.2656248 11.277344-3.746093 23.179688-1.398437 34.679688 30.660156 2.179688 101.953125 4.359375 144.550781-17.441406-.304687-8.585938-2.125-17.046875-5.382813-24.996094-14.804687 10.359375-38.066406 19.339844-47.625 14.558594zm0 0" fill="#f49e21"/><g fill="#fdbd40"><path d="m288.3125 272.386719c-3.273438-.007813-6.054688-2.394531-6.554688-5.628907-.507812-3.277343-1.21875-6.515624-2.125-9.703124-1.007812-3.527344 1.035157-7.203126 4.5625-8.210938 3.527344-1.007812 7.203126 1.035156 8.210938 4.566406 1.0625 3.714844 1.890625 7.496094 2.484375 11.316406.558594 3.625-1.925781 7.019532-5.550781 7.582032-.339844.050781-.683594.078125-1.027344.078125zm0 0"/><path d="m272.734375 234.742188c-2.121094 0-4.117187-1.007813-5.367187-2.722657-15.046876-20.515625-38.953126-32.660156-64.394532-32.710937-3.667968 0-6.644531-2.976563-6.644531-6.644532 0-3.667968 2.976563-6.644531 6.644531-6.644531 29.679688.058594 57.566406 14.222657 75.117188 38.15625 2.167968 2.960938 1.523437 7.117188-1.4375 9.285157-1.136719.828124-2.507813 1.277343-3.917969 1.28125zm0 0"/></g></svg>