<svg height="512pt" viewBox="0 0 512 512.01656" width="512pt" xmlns="http://www.w3.org/2000/svg"><path d="m339.074219 164.121094c-3.269531-3.351563-7.761719-5.234375-12.445313-5.207032h-.089844c.089844-1.503906.089844-11.832031.089844-13.242187-1.242187-81.652344-68.417968-146.851563-150.070312-145.65625-81.652344-1.195313-148.824219 64.003906-150.066406 145.65625 0 1.410156 0 11.738281.085937 13.242187h-.085937c-9.722657.070313-17.585938 7.933594-17.65625 17.652344.027343 9.742188 7.917968 17.628906 17.65625 17.65625h20.214843c12.179688 55.4375 65.675781 97.105469 129.851563 97.105469 64.179687 0 117.671875-41.667969 129.855468-97.105469h20.214844c9.738282-.027344 17.625-7.914062 17.65625-17.65625.023438-4.683594-1.855468-9.175781-5.210937-12.445312zm0 0" fill="#af8066"/><path d="m326.644531 185.394531s-8.828125 52.964844 8.824219 88.277344c15.714844 31.425781 10.417969 69.914063-15.886719 90.394531h-286.015625c-26.304687-20.480468-31.601562-58.96875-15.890625-90.394531 17.65625-35.3125 8.828125-88.277344 8.828125-88.277344zm0 0" fill="#7f5b53"/><g fill="#af8066"><path d="m63.214844 110.714844c-.328125.480468-.621094.980468-.882813 1.5h-.089843c.292968-.519532.617187-1.019532.972656-1.5zm0 0"/><path d="m326.628906 145.671875c0 1.410156 0 11.738281-.089844 13.242187h-18.183593c-.265625-3.179687-.792969-6.355468-1.324219-9.535156-.792969-3.882812-1.765625-7.679687-2.914062-11.476562v-.085938c-3.710938-8.589844-8.015626-16.90625-12.886719-24.894531-2.429688-2.875-5.398438-5.242187-8.738281-6.976563-72.828126 6.09375-112.375-21.273437-129.765626-39.015624-5.324218-1.914063-10.871093-3.132813-16.507812-3.621094-8.121094 13.066406-28.160156 35.578125-73.886719 48.90625.261719-.519532.554688-1.019532.882813-1.5-.355469.480468-.679688.980468-.972656 1.5-4.988282 8.222656-9.410157 16.777344-13.242188 25.601562v.085938c-1.144531 3.796875-2.117188 7.59375-2.910156 11.476562-.53125 3.179688-1.0625 6.355469-1.324219 9.535156h-18.1875c-.085937-1.503906-.085937-11.832031-.085937-13.242187 1.242187-81.652344 68.414062-146.851563 150.066406-145.65625 81.652344-1.195313 148.828125 64.003906 150.070312 145.65625zm0 0"/><path d="m63.214844 110.714844c-.328125.480468-.621094.980468-.882813 1.5h-.089843c.292968-.519532.617187-1.019532.972656-1.5zm0 0"/></g><path d="m247.179688 335.464844h-141.242188c-28.09375-.007813-55.042969 11.148437-74.910156 31.015625-19.867188 19.871093-31.027344 46.816406-31.0195315 74.914062v52.964844c.0273437 9.742187 7.9179685 17.628906 17.6562495 17.65625h317.792969l9.179688-112.285156c-16.683594-39.007813-55.03125-64.296875-97.457031-64.265625zm0 0" fill="#ecf0f1"/><path d="m203.042969 288.941406v66.914063c-19.6875 56.144531-26.484375 156.160156-26.484375 156.160156s-6.796875-100.015625-26.480469-156.160156v-66.914063zm0 0" fill="#f09372"/><path d="m46.707031 194.222656h-20.214843c-9.738282-.027344-17.628907-7.914062-17.65625-17.65625.070312-9.71875 7.933593-17.582031 17.65625-17.652344h18.273437c-.433594 3.777344-.636719 7.582032-.621094 11.386719.015625 4.1875.25 8.371094.707031 12.535157.441407 3.882812 1.058594 7.589843 1.855469 11.386718zm0 0" fill="#f09372"/><path d="m344.285156 176.566406c-.03125 9.742188-7.917968 17.628906-17.65625 17.65625h-20.214844c.792969-3.796875 1.414063-7.503906 1.855469-11.386718.457031-4.164063.691407-8.347657.703125-12.535157.019532-3.804687-.1875-7.609375-.617187-11.386719h18.273437c9.722656.070313 17.585938 7.933594 17.65625 17.652344zm0 0" fill="#f09372"/><path d="m150.078125 335.464844v20.390625c-2.34375-7.042969-5.296875-13.863281-8.828125-20.390625zm0 0" fill="#95a5a5"/><path d="m211.871094 335.464844c-3.53125 6.527344-6.488282 13.347656-8.828125 20.390625v-20.390625zm0 0" fill="#95a5a5"/><path d="m176.558594 512.015625h-158.894532c-9.738281-.027344-17.6289058-7.914063-17.6562495-17.65625v-52.964844c-.0078125-28.097656 11.1523435-55.042969 31.0195315-74.914062 19.867187-19.867188 46.816406-31.023438 74.910156-31.015625h35.3125c-32.507812 1.214844-59.011719 26.46875-61.792969 58.878906 0 0 35.308594 0 44.136719 11.742188-18.066406 9.785156-30.960938 26.96875-35.308594 47.050781 0 0 61.792969 23.570312 88.273438 58.878906zm0 0" fill="#ecf0f1"/><path d="m344.636719 399.730469-9.179688 112.285156h-158.898437c26.484375-35.308594 88.277344-58.878906 88.277344-58.878906-4.347657-20.082031-17.242188-37.265625-35.308594-47.050781 8.824218-11.742188 44.136718-11.742188 44.136718-11.742188-2.78125-32.410156-29.285156-57.664062-61.792968-58.878906h35.308594c42.425781-.03125 80.773437 25.257812 97.457031 64.265625zm0 0" fill="#ecf0f1"/><path d="m264.835938 453.136719s-61.792969 23.570312-88.277344 58.878906c0 0 6.796875-100.015625 26.484375-156.160156 2.339843-7.042969 5.296875-13.863281 8.828125-20.390625 32.507812 1.214844 59.011718 26.46875 61.792968 58.878906 0 0-35.3125 0-44.136718 11.742188 18.066406 9.785156 30.960937 26.96875 35.308594 47.050781zm0 0" fill="#bdc3c7"/><path d="m132.421875 485.535156h-88.277344c-4.875 0-8.824219-3.953125-8.824219-8.828125s3.949219-8.828125 8.824219-8.828125h88.277344c4.875 0 8.828125 3.953125 8.828125 8.828125s-3.953125 8.828125-8.828125 8.828125zm0 0" fill="#95a5a5"/><path d="m467.871094 390.988281v-55.523437h-35.3125v55.523437c-21.140625 6.304688-37.320313 23.390625-42.460938 44.847657l1.414063 3.351562 25.953125 63.382812c9.792968 6.210938 21.15625 9.488282 32.75 9.445313 30.683594-.003906 56.71875-22.519531 61.148437-52.878906 4.429688-30.363281-14.089843-59.378907-43.492187-68.148438zm0 0" fill="#67b9cc"/><path d="m512.007812 450.222656c.011719 16.394532-6.492187 32.117188-18.085937 43.707032-11.589844 11.59375-27.316406 18.097656-43.707031 18.085937-11.59375.042969-22.957032-3.234375-32.75-9.445313l-25.953125-63.382812c15.207031-8.382812 33.007812-10.746094 49.875-6.621094 35.3125 8.828125 35.3125 26.484375 70.621093 17.65625zm0 0" fill="#f0c419"/><path d="m512.007812 450.222656c-35.308593 8.828125-35.308593-8.828125-70.621093-17.65625-16.867188-4.125-34.667969-1.761718-49.875 6.621094l-1.414063-3.351562c5.140625-21.457032 21.320313-38.542969 42.460938-44.847657v-55.523437h35.3125v55.523437c26.199218 7.800781 44.15625 31.898438 44.136718 59.234375zm0 0" fill="#67b9cc"/><path d="m476.699219 344.292969h-52.964844c-4.878906 0-8.828125-3.953125-8.828125-8.828125s3.949219-8.828125 8.828125-8.828125h52.964844c4.875 0 8.828125 3.953125 8.828125 8.828125s-3.953125 8.828125-8.828125 8.828125zm0 0" fill="#2fa8cc"/><path d="m417.90625 469.027344-11.652344-13.949219-26.304687-31.335937v-79.449219h-35.3125v79.449219l-33.015625 38.75-5.558594 6.535156c-6.367188 7.9375-7.613281 18.824218-3.207031 27.996094 4.40625 9.171874 13.6875 15 23.863281 14.992187h70.441406c10.179688.019531 19.472656-5.800781 23.894532-14.96875 4.425781-9.167969 3.199218-20.0625-3.148438-28.019531zm0 0" fill="#67b9cc"/><path d="m397.160156 512.015625h-70.441406c-10.175781.007813-19.457031-5.820313-23.863281-14.992187-4.40625-9.171876-3.160157-20.058594 3.207031-27.996094l5.558594-6.535156c11.585937 7.1875 25.46875 9.710937 38.84375 7.0625 26.394531-4.589844 40.339844-12.445313 55.789062-14.476563l11.652344 13.949219c6.347656 7.957031 7.574219 18.851562 3.148438 28.019531-4.421876 9.167969-13.714844 14.988281-23.894532 14.96875zm0 0" fill="#955ba5"/><path d="m406.253906 455.078125c-15.449218 2.03125-29.394531 9.886719-55.789062 14.476563-13.375 2.648437-27.257813.125-38.84375-7.0625l33.015625-38.75v-79.449219h35.3125v79.449219zm0 0" fill="#67b9cc"/><path d="m388.75 353.121094h-52.964844c-4.875 0-8.828125-3.953125-8.828125-8.828125s3.953125-8.828125 8.828125-8.828125h52.964844c4.875 0 8.828125 3.953125 8.828125 8.828125s-3.953125 8.828125-8.828125 8.828125zm0 0" fill="#2fa8cc"/><path d="m176.558594 512.015625c-26.480469-35.308594-88.273438-58.878906-88.273438-58.878906 4.347656-20.082031 17.242188-37.265625 35.308594-47.050781-8.828125-11.742188-44.136719-11.742188-44.136719-11.742188 2.78125-32.410156 29.285157-57.664062 61.792969-58.878906 3.53125 6.527344 6.484375 13.347656 8.828125 20.390625 19.683594 56.144531 26.480469 156.160156 26.480469 156.160156zm0 0" fill="#bdc3c7"/><path d="m308.972656 170.300781c-.007812 9.898438-1.3125 19.75-3.882812 29.308594-.972656 3.351563-2.03125 6.621094-3.179688 9.796875-.085937.265625-.261718.617188-.351562.882812-.707032 1.765626-1.414063 3.441407-2.117188 5.207032-.882812 1.855468-1.765625 3.796875-2.648437 5.5625-.796875 1.5-1.589844 3-2.382813 4.414062-2.738281 4.929688-5.835937 9.652344-9.269531 14.125-1.148437 1.5-2.296875 2.914063-3.53125 4.414063-.796875.96875-1.679687 2.027343-2.5625 3-.703125.792969-1.410156 1.5-2.207031 2.296875-1.167969 1.328125-2.402344 2.597656-3.707032 3.792968-8.328124 8.132813-17.710937 15.109376-27.894531 20.746094-1.234375.707032-2.558593 1.414063-3.882812 2.03125-1.679688.882813-3.445313 1.765625-5.296875 2.558594-5.777344 2.683594-11.734375 4.957031-17.832032 6.796875-1.058593.355469-2.207031.617187-3.355468.972656-2.382813.617188-4.765625 1.234375-7.238282 1.765625-1.148437.265625-2.382812.527344-3.617187.707032-1.324219.261718-2.648437.527343-3.886719.703124-3.796875.621094-7.679687 1.148438-11.652344 1.503907-3.972656.261719-7.945312.441406-11.917968.441406s-7.945313-.179687-11.914063-.441406c-3.972656-.355469-7.859375-.882813-11.652343-1.503907-1.238282-.175781-2.5625-.441406-3.886719-.703124-1.234375-.179688-2.472657-.441407-3.617188-.707032-2.472656-.53125-4.855469-1.148437-7.238281-1.765625-1.148438-.355469-2.296875-.617187-3.355469-.972656-6.097656-1.839844-12.054687-4.113281-17.832031-6.796875-1.855469-.792969-3.621094-1.675781-5.296875-2.558594-1.324219-.617187-2.648437-1.324218-3.882813-2.03125-10.183593-5.636718-19.566406-12.613281-27.898437-20.746094-1.300781-1.195312-2.539063-2.464843-3.707031-3.792968-.792969-.796875-1.5-1.503906-2.207032-2.296875-.882812-.972657-1.765624-2.03125-2.558593-3-1.234375-1.5-2.382813-2.914063-3.53125-4.414063-3.433594-4.472656-6.53125-9.195312-9.269531-14.125-.792969-1.414062-1.589844-2.914062-2.382813-4.414062-.882813-1.765625-1.765625-3.707032-2.648437-5.5625-.707032-1.765625-1.410157-3.441406-2.117188-5.207032-.089844-.265624-.265625-.617187-.355469-.882812-1.144531-3.175781-2.207031-6.445312-3.175781-9.796875-2.570312-9.558594-3.878906-19.410156-3.886719-29.308594-.003906-3.539062.175781-7.074219.53125-10.59375.175781-1.765625.351563-3.441406.617188-5.207031.179687-1.71875.445312-3.429688.796875-5.121094.617187-3.089844 1.324218-6.089844 2.207031-9.09375l4.675781-25.511718c3.179688-.792969 6.269532-1.585938 9.269532-2.558594 45.816406-13.328125 65.855468-35.839844 73.976562-48.90625 2.125-3.203125 3.816406-6.675782 5.03125-10.328125 3.1875 5.0625 6.980469 9.71875 11.300781 13.859375 17.300781 17.65625 56.847657 45.199218 129.941407 39.105468 3.339843 1.734376 6.308593 4.101563 8.738281 6.976563.089843 0 .089843.085937.175781.175781 5.757812 7.25 10.046875 15.558594 12.625 24.453125.792969 2.734375 1.5 5.121094 1.941406 7.148438.175782.972656.441406 1.941406.707032 2.914062.082031.59375.199218 1.183594.351562 1.765625.351562 1.691406.617188 3.402344.796875 5.121094.261719 1.765625.441406 3.441406.617187 5.207031.355469 3.519531.53125 7.054688.527344 10.59375zm0 0" fill="#fdd7ad"/><path d="m88.285156 141.257812h61.792969c4.875 0 8.828125 3.953126 8.828125 8.828126v8.828124c0 19.5-15.808594 35.308594-35.3125 35.308594h-8.828125c-19.5 0-35.308594-15.808594-35.308594-35.308594v-8.828124c0-4.875 3.953125-8.828126 8.828125-8.828126zm0 0" fill="#9fc9d3"/><path d="m203.042969 141.257812h61.792969c4.875 0 8.828124 3.953126 8.828124 8.828126v8.828124c0 19.5-15.808593 35.308594-35.3125 35.308594h-8.824218c-19.503906 0-35.3125-15.808594-35.3125-35.308594v-8.828124c0-4.875 3.953125-8.828126 8.828125-8.828126zm0 0" fill="#9fc9d3"/><path d="m196.171875 153.515625c-2.183594.003906-4.292969-.808594-5.910156-2.273437-7.632813-7.292969-19.648438-7.292969-27.285157 0-3.628906 3.175781-9.132812 2.851562-12.363281-.730469-3.230469-3.578125-2.992187-9.089844.535157-12.375 14.339843-13.386719 36.59375-13.386719 50.9375 0 2.707031 2.449219 3.632812 6.3125 2.320312 9.722656-1.308594 3.40625-4.585938 5.65625-8.238281 5.65625zm0 0" fill="#35495e"/><path d="m85.546875 151.761719-37.515625 14.125c-.976562.425781-2.027344.636719-3.089844.617187h-.707031v-.085937c.089844-2.5625.265625-5.035157.53125-7.503907.261719-3.179687.792969-6.355468 1.324219-9.535156.09375-.601562.242187-1.191406.441406-1.765625l32.835938-12.445312c4.566406-1.648438 9.609374.691406 11.300781 5.238281 1.695312 4.550781-.589844 9.613281-5.121094 11.355469zm0 0" fill="#35495e"/><path d="m308.886719 166.417969v.085937h-.707031c-1.0625.019532-2.117188-.191406-3.089844-.617187l-37.515625-14.125c-4.53125-1.742188-6.816407-6.804688-5.125-11.355469 1.695312-4.546875 6.734375-6.886719 11.300781-5.238281l32.839844 12.445312c.199218.574219.347656 1.164063.441406 1.765625.53125 3.179688 1.058594 6.355469 1.324219 9.535156.265625 2.46875.441406 4.941407.53125 7.503907zm0 0" fill="#35495e"/><path d="m158.90625 156.089844v2.824218c0 9.363282-3.71875 18.347657-10.339844 24.96875-6.625 6.625-15.605468 10.34375-24.972656 10.339844h-8.828125c-5.335937.050782-10.605469-1.191406-15.359375-3.617187 11.253906-22.269531 34.582031-35.800781 59.5-34.515625zm0 0" fill="#67b9cc"/><path d="m273.664062 156.617188v2.296874c.003907 9.363282-3.71875 18.347657-10.339843 24.96875-6.621094 6.625-15.605469 10.34375-24.972657 10.339844h-8.824218c-7.8125.03125-15.40625-2.582031-21.542969-7.414062 9.976563-16.332032 29.308594-33.546875 65.679687-30.191406zm0 0" fill="#67b9cc"/><path d="m123.59375 203.050781h-8.828125c-24.363281-.027343-44.109375-19.773437-44.136719-44.136719v-8.828124c.011719-9.746094 7.910156-17.644532 17.65625-17.65625h61.792969c9.746094.011718 17.644531 7.910156 17.65625 17.65625v8.828124c-.03125 24.363282-19.773437 44.109376-44.140625 44.136719zm-35.308594-52.964843v8.828124c.015625 14.617188 11.863282 26.464844 26.480469 26.480469h8.828125c14.621094-.015625 26.46875-11.863281 26.484375-26.480469v-8.828124zm0 0" fill="#35495e"/><path d="m238.351562 203.050781h-8.824218c-24.367188-.027343-44.109375-19.773437-44.140625-44.136719v-8.828124c.011719-9.746094 7.910156-17.644532 17.65625-17.65625h61.792969c9.746093.011718 17.644531 7.910156 17.65625 17.65625v8.828124c-.03125 24.363282-19.773438 44.109376-44.140626 44.136719zm-35.308593-52.964843v8.828124c.015625 14.617188 11.863281 26.464844 26.484375 26.480469h8.824218c14.621094-.015625 26.46875-11.863281 26.484376-26.480469v-8.828124zm0 0" fill="#35495e"/></svg>