<?xml version="1.0"?>
<svg xmlns="http://www.w3.org/2000/svg" viewBox="0 0 64 64" width="512" height="512"><path d="m60.67737 4.45233a57.133 57.133 0 0 0 -25.94806 2.16535l-2.72931.88232-2.72931-1.22107a57.13382 57.13382 0 0 0 -25.94806-2.16534l-.32263.04766v35l6.37286-1.52136a26.38973 26.38973 0 0 1 11.03473-.26349 14.88685 14.88685 0 0 1 2.63037.79132l8.96204 3.83228 9.049-3.5274a14.14576 14.14576 0 0 1 2.45191-.74 26.38925 26.38925 0 0 1 11.12622.246l6.37287 1.5214v-35z" fill="#b6dedc"/><path d="m49.18652 45h-9.25561a7.99281 7.99281 0 0 1 -15.86182 0h-9.25561a9.81345 9.81345 0 0 0 -9.81348 9.81348v6.18652h54v-6.18652a9.81345 9.81345 0 0 0 -9.81348-9.81348z" fill="#4bad32"/><path d="m32 42-8-3v5a8 8 0 0 0 16 0v-5z" fill="#fcd821"/><path d="m35.40234 14.79-.80468-1.831a12.619 12.619 0 0 1 2.48437-.8081 54.9655 54.9655 0 0 1 21.09668-.26025l-.35742 1.96777a52.98919 52.98919 0 0 0 -20.332.25049 10.60869 10.60869 0 0 0 -2.08695.68109z"/><path d="m35.40234 20.79-.80468-1.831a12.619 12.619 0 0 1 2.48437-.8081 54.94611 54.94611 0 0 1 21.09668-.26025l-.35742 1.96777a52.97949 52.97949 0 0 0 -20.332.25049 10.60869 10.60869 0 0 0 -2.08695.68109z"/><path d="m35.40234 26.79-.80468-1.831a12.619 12.619 0 0 1 2.48437-.8081 54.9752 54.9752 0 0 1 21.09668-.26025l-.35742 1.96777a52.98919 52.98919 0 0 0 -20.332.25049 10.60869 10.60869 0 0 0 -2.08695.68109z"/><path d="m35.40234 32.79-.80468-1.831a12.619 12.619 0 0 1 2.48437-.8081 54.9752 54.9752 0 0 1 21.09668-.26025l-.35742 1.96777a52.97949 52.97949 0 0 0 -20.332.25049 10.60869 10.60869 0 0 0 -2.08695.68109z"/><path d="m28.59766 14.79a10.59608 10.59608 0 0 0 -2.08789-.68115 52.9849 52.9849 0 0 0 -20.33106-.25045l-.35742-1.96777a54.94081 54.94081 0 0 1 21.0957.26025 12.60642 12.60642 0 0 1 2.48535.8081z"/><path d="m28.59766 20.79a10.59608 10.59608 0 0 0 -2.08789-.68115 52.9849 52.9849 0 0 0 -20.33106-.25045l-.35742-1.96777a54.94081 54.94081 0 0 1 21.0957.26025 12.60642 12.60642 0 0 1 2.48535.8081z"/><path d="m28.59766 26.79a10.59608 10.59608 0 0 0 -2.08789-.68115 52.9847 52.9847 0 0 0 -20.33106-.25045l-.35742-1.96777a54.94081 54.94081 0 0 1 21.0957.26025 12.60642 12.60642 0 0 1 2.48535.8081z"/><path d="m28.59766 32.79a10.59608 10.59608 0 0 0 -2.08789-.68115 52.9849 52.9849 0 0 0 -20.33106-.25045l-.35742-1.96777a54.95051 54.95051 0 0 1 21.0957.26025 12.60642 12.60642 0 0 1 2.48535.8081z"/><path d="m61.14648 3.51074-.32226-.04785a58.49864 58.49864 0 0 0 -26.40234 2.20311l-2.36426.76416-2.37891-1.064a.89351.89351 0 0 0 -.10058-.03906 58.4911 58.4911 0 0 0 -26.40137-2.20259l-.32227.04737a.99958.99958 0 0 0 -.85449.98925v35a1.00021 1.00021 0 0 0 1.23242.97266l6.37305-1.52149a25.26907 25.26907 0 0 1 10.61621-.25341 13.64728 13.64728 0 0 1 2.42285.72851l.35547.152v4.7606h-8.18652a10.82563 10.82563 0 0 0 -10.81348 10.81348v6.18652a.99974.99974 0 0 0 1 1h54a.99974.99974 0 0 0 1-1v-6.18652a10.82563 10.82563 0 0 0 -10.81348-10.81348h-8.18652v-4.43506l.41211-.16064a13.02237 13.02237 0 0 1 2.27832-.68994 25.2358 25.2358 0 0 1 10.7041.23681l6.373 1.52149a1.00021 1.00021 0 0 0 1.23247-.97266v-35a1.00035 1.00035 0 0 0 -.85352-.98926zm-3.14648 51.30274v5.18652h-52v-5.18652a8.82365 8.82365 0 0 1 8.81348-8.81348h8.34863a9.07916 9.07916 0 0 0 17.67578 0h8.34863a8.82365 8.82365 0 0 1 8.81348 8.81348zm-19-9.8924a7.06978 7.06978 0 0 1 -14 0v-4.82648l6.60645 2.82483a1.00049 1.00049 0 0 0 .75683.01221l6.63672-2.5871zm21-6.68768-5.14062-1.22754a27.20514 27.20514 0 0 0 -11.54786-.25537 14.96208 14.96208 0 0 0 -2.626.79053l-8.668 3.3789-8.61621-3.68359a15.636 15.636 0 0 0 -2.8086-.84229 27.2439 27.2439 0 0 0 -11.45214.273l-5.14057 1.22749v-32.86719a56.487 56.487 0 0 1 24.91211 2.18653l2.67969 1.19873a1.00036 1.00036 0 0 0 .71582.03906l2.72949-.88232a56.50457 56.50457 0 0 1 24.96289-2.20362z"/><path d="m31 11h2v27h-2z"/></svg>
